<svg width="4096" height="2897" viewBox="0 0 4096 2897" fill="none" xmlns="http://www.w3.org/2000/svg">
<path d="M513.5 1876.5V1891.5M513.5 1876.5H466.75M513.5 1876.5H528.75M513.5 1876.5V1830.5M605.5 1876.5V1891.5M605.5 1876.5H651.75M605.5 1876.5H588M605.5 1876.5V1830.5M605.5 1891.5V1993.5H651.75M605.5 1891.5H698M698 1891.5V1876.5H651.75M698 1891.5V1993.5H651.75M605.5 1906.5H698M605.5 1920.5H698M605.5 1934.5H698M605.5 1949.5H698M605.5 1964.5H698M605.5 1979.5H645.5M698 1979.5H658M513.5 1891.5V1906.5M513.5 1891.5H472.5M420 1891.5V1876.5H466.75M420 1891.5V1906.5M420 1891.5H460M513.5 1906.5H420M513.5 1906.5V1920.5M420 1906.5V1920.5M513.5 1920.5H420M513.5 1920.5V1934.5M420 1920.5V1934.5M513.5 1934.5H420M513.5 1934.5V1949.5M420 1934.5V1949.5M513.5 1949.5H420M513.5 1949.5V1964.5M420 1949.5V1964.5M513.5 1964.5H420M513.5 1964.5V1979M420 1964.5V1979M513.5 1979V1993.5H466.75M513.5 1979H420M420 1979V1993.5H466.75M466.75 1993.5V1876.5M466.75 1876.5L460 1891.5M466.75 1876.5L472.5 1891.5M460 1891.5H472.5M651.75 1876.5V1993.5M651.75 1993.5L645.5 1979.5M651.75 1993.5L658 1979.5M645.5 1979.5H658M588 1784.5H605.5V1830.5M588 1784.5H573.5M588 1784.5V1824M588 1876.5H573.5M588 1876.5V1836.5M573.5 1784.5V1876.5M573.5 1784.5H559M573.5 1876.5H559M559 1784.5V1876.5M559 1784.5H544M559 1876.5H544M544 1784.5V1876.5M544 1784.5H528.75M544 1876.5H528.75M528.75 1784.5H513.5V1830.5M528.75 1784.5V1876.5M513.5 1830.5H605.5M605.5 1830.5L588 1824M605.5 1830.5L588 1836.5M588 1824V1836.5" stroke="black" stroke-width="3"/>
<path d="M3379.5 1868V1883M3379.5 1868H3426.25M3379.5 1868H3364.25M3379.5 1868V1822M3287.5 1868V1883M3287.5 1868H3241.25M3287.5 1868H3305M3287.5 1868V1822M3287.5 1883V1985H3241.25M3287.5 1883H3195M3195 1883V1868H3241.25M3195 1883V1985H3241.25M3287.5 1898H3195M3287.5 1912H3195M3287.5 1926H3195M3287.5 1941H3195M3287.5 1956H3195M3287.5 1971H3247.5M3195 1971H3235M3379.5 1883V1898M3379.5 1883H3420.5M3473 1883V1868H3426.25M3473 1883V1898M3473 1883H3433M3379.5 1898H3473M3379.5 1898V1912M3473 1898V1912M3379.5 1912H3473M3379.5 1912V1926M3473 1912V1926M3379.5 1926H3473M3379.5 1926V1941M3473 1926V1941M3379.5 1941H3473M3379.5 1941V1956M3473 1941V1956M3379.5 1956H3473M3379.5 1956V1970.5M3473 1956V1970.5M3379.5 1970.5V1985H3426.25M3379.5 1970.5H3473M3473 1970.5V1985H3426.25M3426.25 1985V1868M3426.25 1868L3433 1883M3426.25 1868L3420.5 1883M3433 1883H3420.5M3241.25 1868V1985M3241.25 1985L3247.5 1971M3241.25 1985L3235 1971M3247.5 1971H3235M3305 1776H3287.5V1822M3305 1776H3319.5M3305 1776V1815.5M3305 1868H3319.5M3305 1868V1828M3319.5 1776V1868M3319.5 1776H3334M3319.5 1868H3334M3334 1776V1868M3334 1776H3349M3334 1868H3349M3349 1776V1868M3349 1776H3364.25M3349 1868H3364.25M3364.25 1776H3379.5V1822M3364.25 1776V1868M3379.5 1822H3287.5M3287.5 1822L3305 1815.5M3287.5 1822L3305 1828M3305 1815.5V1828" stroke="black" stroke-width="3"/>
<path d="M836 1628V1620H859.5V1628V1638.38C859.5 1644.67 858.407 1651.72 853.073 1655.06C849.125 1657.53 845.355 1656.77 842.249 1654.76C837.153 1651.45 836 1644.8 836 1638.72V1628Z" fill="white"/>
<path d="M836 1628V1620H859.5V1628M836 1628H859.5M836 1628V1638.72C836 1644.8 837.153 1651.45 842.249 1654.76C845.355 1656.77 849.125 1657.53 853.073 1655.06C858.407 1651.72 859.5 1644.67 859.5 1638.38V1628M853.5 1644.75V1644.75C853.5 1647.37 851.373 1649.5 848.75 1649.5H847.75C845.127 1649.5 843 1647.37 843 1644.75V1644.75C843 1642.13 845.127 1640 847.75 1640H848.75C851.373 1640 853.5 1642.13 853.5 1644.75Z" stroke="#302E39" stroke-width="3"/>
<path d="M886 1628V1620H909.5V1628V1638.38C909.5 1644.67 908.407 1651.72 903.073 1655.06C899.125 1657.53 895.355 1656.77 892.249 1654.76C887.153 1651.45 886 1644.8 886 1638.72V1628Z" fill="white"/>
<path d="M886 1628V1620H909.5V1628M886 1628H909.5M886 1628V1638.72C886 1644.8 887.153 1651.45 892.249 1654.76C895.355 1656.77 899.125 1657.53 903.073 1655.06C908.407 1651.72 909.5 1644.67 909.5 1638.38V1628M903.5 1644.75V1644.75C903.5 1647.37 901.373 1649.5 898.75 1649.5H897.75C895.127 1649.5 893 1647.37 893 1644.75V1644.75C893 1642.13 895.127 1640 897.75 1640H898.75C901.373 1640 903.5 1642.13 903.5 1644.75Z" stroke="#302E39" stroke-width="3"/>
<path d="M934 1628V1620H957.5V1628V1638.38C957.5 1644.67 956.407 1651.72 951.073 1655.06C947.125 1657.53 943.355 1656.77 940.249 1654.76C935.153 1651.45 934 1644.8 934 1638.72V1628Z" fill="white"/>
<path d="M934 1628V1620H957.5V1628M934 1628H957.5M934 1628V1638.72C934 1644.8 935.153 1651.45 940.249 1654.76C943.355 1656.77 947.125 1657.53 951.073 1655.06C956.407 1651.72 957.5 1644.67 957.5 1638.38V1628M951.5 1644.75V1644.75C951.5 1647.37 949.373 1649.5 946.75 1649.5H945.75C943.127 1649.5 941 1647.37 941 1644.75V1644.75C941 1642.13 943.127 1640 945.75 1640H946.75C949.373 1640 951.5 1642.13 951.5 1644.75Z" stroke="#302E39" stroke-width="3"/>
<path d="M984 1628V1620H1007.5V1628V1638.38C1007.5 1644.67 1006.41 1651.72 1001.07 1655.06C997.125 1657.53 993.355 1656.77 990.249 1654.76C985.153 1651.45 984 1644.8 984 1638.72V1628Z" fill="white"/>
<path d="M984 1628V1620H1007.5V1628M984 1628H1007.5M984 1628V1638.72C984 1644.8 985.153 1651.45 990.249 1654.76C993.355 1656.77 997.125 1657.53 1001.07 1655.06C1006.41 1651.72 1007.5 1644.67 1007.5 1638.38V1628M1001.5 1644.75V1644.75C1001.5 1647.37 999.373 1649.5 996.75 1649.5H995.75C993.127 1649.5 991 1647.37 991 1644.75V1644.75C991 1642.13 993.127 1640 995.75 1640H996.75C999.373 1640 1001.5 1642.13 1001.5 1644.75Z" stroke="#302E39" stroke-width="3"/>
<path d="M2783 1766V1758H2806.5V1766V1776.38C2806.5 1782.67 2805.41 1789.72 2800.07 1793.06C2796.12 1795.53 2792.35 1794.77 2789.25 1792.76C2784.15 1789.45 2783 1782.8 2783 1776.72V1766Z" fill="white"/>
<path d="M2783 1766V1758H2806.5V1766M2783 1766H2806.5M2783 1766V1776.72C2783 1782.8 2784.15 1789.45 2789.25 1792.76C2792.35 1794.77 2796.12 1795.53 2800.07 1793.06C2805.41 1789.72 2806.5 1782.67 2806.5 1776.38V1766M2800.5 1782.75V1782.75C2800.5 1785.37 2798.37 1787.5 2795.75 1787.5H2794.75C2792.13 1787.5 2790 1785.37 2790 1782.75V1782.75C2790 1780.13 2792.13 1778 2794.75 1778H2795.75C2798.37 1778 2800.5 1780.13 2800.5 1782.75Z" stroke="#302E39" stroke-width="3"/>
<path d="M2833 1766V1758H2856.5V1766V1776.38C2856.5 1782.67 2855.41 1789.72 2850.07 1793.06C2846.12 1795.53 2842.35 1794.77 2839.25 1792.76C2834.15 1789.45 2833 1782.8 2833 1776.72V1766Z" fill="white"/>
<path d="M2833 1766V1758H2856.5V1766M2833 1766H2856.5M2833 1766V1776.72C2833 1782.8 2834.15 1789.45 2839.25 1792.76C2842.35 1794.77 2846.12 1795.53 2850.07 1793.06C2855.41 1789.72 2856.5 1782.67 2856.5 1776.38V1766M2850.5 1782.75V1782.75C2850.5 1785.37 2848.37 1787.5 2845.75 1787.5H2844.75C2842.13 1787.5 2840 1785.37 2840 1782.75V1782.75C2840 1780.13 2842.13 1778 2844.75 1778H2845.75C2848.37 1778 2850.5 1780.13 2850.5 1782.75Z" stroke="#302E39" stroke-width="3"/>
<path d="M2881 1766V1758H2904.5V1766V1776.38C2904.5 1782.67 2903.41 1789.72 2898.07 1793.06C2894.12 1795.53 2890.35 1794.77 2887.25 1792.76C2882.15 1789.45 2881 1782.8 2881 1776.72V1766Z" fill="white"/>
<path d="M2881 1766V1758H2904.5V1766M2881 1766H2904.5M2881 1766V1776.72C2881 1782.8 2882.15 1789.45 2887.25 1792.76C2890.35 1794.77 2894.12 1795.53 2898.07 1793.06C2903.41 1789.72 2904.5 1782.67 2904.5 1776.38V1766M2898.5 1782.75V1782.75C2898.5 1785.37 2896.37 1787.5 2893.75 1787.5H2892.75C2890.13 1787.5 2888 1785.37 2888 1782.75V1782.75C2888 1780.13 2890.13 1778 2892.75 1778H2893.75C2896.37 1778 2898.5 1780.13 2898.5 1782.75Z" stroke="#302E39" stroke-width="3"/>
<path d="M2931 1766V1758H2954.5V1766V1776.38C2954.5 1782.67 2953.41 1789.72 2948.07 1793.06C2944.12 1795.53 2940.35 1794.77 2937.25 1792.76C2932.15 1789.45 2931 1782.8 2931 1776.72V1766Z" fill="white"/>
<path d="M2931 1766V1758H2954.5V1766M2931 1766H2954.5M2931 1766V1776.72C2931 1782.8 2932.15 1789.45 2937.25 1792.76C2940.35 1794.77 2944.12 1795.53 2948.07 1793.06C2953.41 1789.72 2954.5 1782.67 2954.5 1776.38V1766M2948.5 1782.75V1782.75C2948.5 1785.37 2946.37 1787.5 2943.75 1787.5H2942.75C2940.13 1787.5 2938 1785.37 2938 1782.75V1782.75C2938 1780.13 2940.13 1778 2942.75 1778H2943.75C2946.37 1778 2948.5 1780.13 2948.5 1782.75Z" stroke="#302E39" stroke-width="3"/>
<path d="M1032 1628V1620H1055.5V1628V1638.38C1055.5 1644.67 1054.41 1651.72 1049.07 1655.06C1045.12 1657.53 1041.35 1656.77 1038.25 1654.76C1033.15 1651.45 1032 1644.8 1032 1638.72V1628Z" fill="white"/>
<path d="M1032 1628V1620H1055.5V1628M1032 1628H1055.5M1032 1628V1638.72C1032 1644.8 1033.15 1651.45 1038.25 1654.76C1041.35 1656.77 1045.12 1657.53 1049.07 1655.06C1054.41 1651.72 1055.5 1644.67 1055.5 1638.38V1628M1049.5 1644.75V1644.75C1049.5 1647.37 1047.37 1649.5 1044.75 1649.5H1043.75C1041.13 1649.5 1039 1647.37 1039 1644.75V1644.75C1039 1642.13 1041.13 1640 1043.75 1640H1044.75C1047.37 1640 1049.5 1642.13 1049.5 1644.75Z" stroke="#302E39" stroke-width="3"/>
<path d="M1082 1628V1620H1105.5V1628V1638.38C1105.5 1644.67 1104.41 1651.72 1099.07 1655.06C1095.12 1657.53 1091.35 1656.77 1088.25 1654.76C1083.15 1651.45 1082 1644.8 1082 1638.72V1628Z" fill="white"/>
<path d="M1082 1628V1620H1105.5V1628M1082 1628H1105.5M1082 1628V1638.72C1082 1644.8 1083.15 1651.45 1088.25 1654.76C1091.35 1656.77 1095.12 1657.53 1099.07 1655.06C1104.41 1651.72 1105.5 1644.67 1105.5 1638.38V1628M1099.5 1644.75V1644.75C1099.5 1647.37 1097.37 1649.5 1094.75 1649.5H1093.75C1091.13 1649.5 1089 1647.37 1089 1644.75V1644.75C1089 1642.13 1091.13 1640 1093.75 1640H1094.75C1097.37 1640 1099.5 1642.13 1099.5 1644.75Z" stroke="#302E39" stroke-width="3"/>
<path d="M2959 644L2944.5 644M2959 644L2959 679M2959 644L2973.5 644M2959 714L2944.5 714M2959 714L2959 679M2959 714L2973.5 714M2857 714L2842 714L2842 679M2857 714L2872 714M2857 714L2857 683.305M2857 644L2842 644L2842 679M2857 644L2872 644M2857 644L2857 673.947M2872 714L2872 644M2872 714L2886 714M2872 644L2886 644M2886 714L2886 644M2886 714L2900 714M2886 644L2900 644M2900 714L2900 644M2900 714L2915 714M2900 644L2915 644M2915 714L2915 644M2915 714L2930 714M2915 644L2930 644M2930 714L2930 644M2930 714L2944.5 714M2930 644L2944.5 644M2944.5 714L2944.5 644M2959 679L2842 679M2959 679L2988 679M2842 679L2857 673.947M2842 679L2857 683.305M2857 673.947L2857 683.305M2973.5 714L2988 714L2988 679M2973.5 714L2973.5 644M2973.5 644L2988 644L2988 679M2871 722L2885.5 722M2871 722L2871 757M2871 722L2856.5 722M2871 792L2885.5 792M2871 792L2871 757M2871 792L2856.5 792M2973 792L2988 792L2988 757M2973 792L2958 792M2973 792L2973 761.305M2973 722L2988 722L2988 757M2973 722L2958 722M2973 722L2973 751.947M2958 792L2958 722M2958 792L2944 792M2958 722L2944 722M2944 792L2944 722M2944 792L2930 792M2944 722L2930 722M2930 792L2930 722M2930 792L2915 792M2930 722L2915 722M2915 792L2915 722M2915 792L2900 792M2915 722L2900 722M2900 792L2900 722M2900 792L2885.5 792M2900 722L2885.5 722M2885.5 792L2885.5 722M2871 757L2988 757M2871 757L2842 757M2988 757L2973 751.947M2988 757L2973 761.305M2973 751.947L2973 761.305M2856.5 792L2842 792L2842 757M2856.5 792L2856.5 722M2856.5 722L2842 722L2842 757" stroke="black" stroke-width="3"/>
<path fill-rule="evenodd" clip-rule="evenodd" d="M380.5 1103V1174H390V2044.5H378V2116H390V2187H378V2258.5H390V2297.5V2351.5V2397.5V2451.5V2494.5H378V2565.5H450.5V2555H664V2565.5H735V2555H875V2565.5H945V2555H1089V2565.5H1158.5V2508.5H3034.5V2565.5H3104.5V2555H3252V2565.5H3324V2555H3469.5V2565.5H3540V2555H3680.5V2565.5H3749.5V2494.5H3739V2268.5H3749.5V2205.5H3739V2108H3749.5V2040.5H3680V2049.5H3506.5V1168.5H3680.5V1178.5H3749.5V1109.5H3739V672.5H3749.5V603.5H3681V614H3079.5V603.5H3012V614H2838V603.5H2770.5V614H2741.5V2049.5H1149V1174H1158.5V1103H1088.5V1114H911V1103H836.5V1114H711.5V1103H639V1114H451.5V1103H380.5ZM419.5 1329V1143.5H712V1210.5H719.5V1143.5H818V1215.5H825.5V1143.5H1120V1329H845.5V1290.5H825.5V1254H818V1424.5H825.5V1375H845.5V1339H1120V1526H825.5V1463.5H818V1568H825.5V1536H1120V1611.5H825.5V1608H818V1818.5H895V1806H910V1795.5H887V1806H825.5V1619.5H873H1120V1795.5H948.5V1806H1120V1856H818V1925.5H825.5V1908.5H846V1883H825.5V1866H1120V2055H856V2037.5H841V2055H825.5V1964H818V2055H800.5V2077.5H841V2087.5H856V2077.5H1124.5V2090H1149V2085.5H1975V2090H2002.5V2085.5H2959.5V2056H2770.5V1909.5H3082.5V2056H3069.5V2049.5H3037.5V2056H2999V2085.5H3062V2100.5H3069.5V2085.5H3098V2056H3089.5V1900H3079.5V1895H3070.5V1900H2770.5V1757H2819H3070.5V1831.5H3048.5V1855H3079.5V1757H3093V1748H3079.5V1617.5H3056.5V1748H2770.5V1561.5H3056.5V1576.5H3079.5V1409.5H3056.5V1422.5H3043.5V1432.5H3056.5V1534.5H2770.5V1432.5H3004.5V1422.5H2988.5V1407H2980V1422.5H2770.5V1298.5H2980V1368H2988.5V1298.5H3056.5V1370.5H3079.5V1237.5H3056.5V1287.5H2770.5V1174H3056.5V1198H3079.5V1109.5H3056.5V1148H3024.5V1163.5H2770.5V1052.5H2784V1042.5H2770.5V940.5H2980V986.5H2988.5V940.5H3008V929.5H2770.5V816H3056.5V929.5H3047.5V940.5H3056.5V991.5H3079.5V944H3092.5V920.5H3079.5V748H3056V792.5H2770.5V643H3056V685H3079.5V643H3188V870.5H3197V860.5H3263V853.5H3197V643H3308V853.5H3301.5V860.5H3308V920.5H3197V909.5H3188V920.5H3164V944H3171.5V1178H3179.5V944H3705.5V1135H3473V1533.5H3317.5H3179.5V1483H3171.5V1608H3194V1561H3264.5V1660.5H3194V1647H3171.5V1753H3154.5V1774.5H3171.5V2056H3161V2085.5H3193.5V1774.5H3473V2049.5H3464.5V2175.5H3473V2084H3705V2215H3411V2222.5H3705V2519H3290V2222.5H3372V2215H3201V2222.5H3282.5V2519H3069.5V2222.5H3162.5V2215H3069.5V2140H3062V2159H3046V2167H2968.5V2180.5H3046V2470H2857V2180.5H2929.5V2167H2751.5V2180.5H2827.5V2470H2644V2180.5H2712.5V2167H2540.5V2180.5H2615.5V2470H2432.5V2180.5H2500V2167H2328.5V2180.5H2403V2470H2215.5V2180.5H2289.5V2167H2114.5V2180.5H2186V2470H2002.5V2180.5H2077.5V2167H2002.5V2159H1975V2167H1913.5V2180.5H1975V2470H1793V2189.5H1806.5V2180.5H1875V2167H1700V2180.5H1757V2189.5H1772V2470H1582V2180.5H1661.5V2167H1478.5V2180.5H1562V2470H1158.5V2180.5H1322.5V2189.5H1372V2180.5H1440V2167H1149V2161.5H1124V2207.5H1040.5V2237H1115V2520.5H700.5V2258.5H725.5V2237H1001V2207.5H856V2127H841V2207.5H661V2237H666.5V2258.5H681V2520.5H428.5V2451.5V2397.5V2351.5V2297.5V2237H621V2207.5H614V2125H599.5V2207.5H419.5V2070H494.5V2077.5H529.5V2070H585.5V2077.5H599.5V2085.5H614V2077.5H621V2055H419.5V1784.5H698.5V2055H689V2077.5H727.5V2055H719.5V1693H712V1754.5H419.5V1529H712V1559H683V1626.5H712V1653.5H719.5V1469.5H712V1510.5H419.5V1349.5H678.5V1360.5H712V1430H719.5V1250H712V1295.5H678.5V1329H419.5ZM3284.5 1561H3317.5H3473V1753H3284.5V1561ZM3317.5 864.5V643H3441.5V864.5H3409.5V870.5H3451.5V643H3705.5V920.5H3464V913H3451.5V910.5H3441.5V920.5H3317.5V870.5H3370.5V864.5H3317.5Z" fill="#C4C4C4"/>
<path d="M2823 1042.5V1052.5H3056.5V1070.5H3079.5V1030H3056.5V1042.5H2988.5V1025.5H2980V1042.5H2823Z" fill="#C4C4C4"/>
<path d="M3171.5 1217.5H3179.5V1443.5H3171.5V1217.5Z" fill="#C4C4C4"/>
<path d="M873 1619.5H1120V1795.5H948.5V1806H1120V1856H818V1925.5H825.5V1908.5H846V1883H825.5V1866H1120V2055H856V2037.5H841V2055H825.5V1964H818V2055H800.5V2077.5H841V2087.5H856V2077.5H1124.5V2090H1149V2085.5H1975V2090H2002.5V2085.5H2959.5V2056H2770.5V1909.5H3082.5V2056H3069.5V2049.5H3037.5V2056H2999V2085.5H3062V2100.5H3069.5V2085.5H3098V2056H3089.5V1900H3079.5V1895H3070.5V1900H2770.5V1757H2819M873 1619.5H825.5V1806H887V1795.5H910V1806H895V1818.5H818V1608H825.5V1611.5H1120V1536H825.5V1568H818V1463.5H825.5V1526H1120V1339H845.5V1375H825.5V1424.5H818V1254H825.5V1290.5H845.5V1329H1120V1143.5H825.5V1215.5H818V1143.5H719.5V1210.5H712V1143.5H419.5V1329H678.5V1295.5H712V1250H719.5V1430H712V1360.5H678.5V1349.5H419.5V1510.5H712V1469.5H719.5V1653.5H712V1626.5H683V1559H712V1529H419.5V1754.5H712V1693H719.5V2055H727.5V2077.5H689V2055H698.5V1784.5H419.5V2055H621V2077.5H614V2085.5H599.5V2077.5H585.5V2070H529.5V2077.5H494.5V2070H419.5V2207.5H599.5V2125H614V2207.5H621V2237H428.5V2297.5V2351.5V2397.5V2451.5V2520.5H681V2258.5H666.5V2237H661V2207.5H841V2127H856V2207.5H1001V2237H725.5V2258.5H700.5V2520.5H1115V2237H1040.5V2207.5H1124V2161.5H1149V2167H1440V2180.5H1372V2189.5H1322.5V2180.5H1158.5V2470H1562V2180.5H1478.5V2167H1661.5V2180.5H1582V2470H1772V2189.5H1757V2180.5H1700V2167H1875V2180.5H1806.5V2189.5H1793V2470H1975V2180.5H1913.5V2167H1975V2159H2002.5V2167H2077.5V2180.5H2002.5V2470H2186V2180.5H2114.5V2167H2289.5V2180.5H2215.5V2470H2403V2180.5H2328.5V2167H2500V2180.5H2432.5V2470H2615.5V2180.5H2540.5V2167H2712.5V2180.5H2644V2470H2827.5V2180.5H2751.5V2167H2929.5V2180.5H2857V2470H3046V2180.5H2968.5V2167H3046V2159H3062V2140H3069.5V2215H3162.5V2222.5H3069.5V2519H3282.5V2222.5H3201V2215H3372V2222.5H3290V2519H3705V2222.5H3411V2215H3705V2084H3473V2175.5H3464.5V2049.5H3473V1774.5H3193.5V2085.5H3161V2056H3171.5V1774.5H3154.5V1753H3171.5V1647H3194V1660.5H3264.5V1561H3194V1608H3171.5V1483H3179.5V1533.5H3317.5H3473V1135H3705.5V944H3179.5V1178H3171.5V944H3164V920.5H3188V909.5H3197V920.5H3308V860.5H3301.5V853.5H3308V643H3197V853.5H3263V860.5H3197V870.5H3188V643H3079.5V685H3056V643H2770.5V792.5H3056V748H3079.5V920.5H3092.5V944H3079.5V991.5H3056.5V940.5H3047.5V929.5H3056.5V816H2770.5V929.5H3008V940.5H2988.5V986.5H2980V940.5H2770.5V1042.5H2784V1052.5H2770.5V1163.5H3024.5V1148H3056.5V1109.5H3079.5V1198H3056.5V1174H2770.5V1287.5H3056.5V1237.5H3079.5V1370.5H3056.5V1298.5H2988.5V1368H2980V1298.5H2770.5V1422.5H2980V1407H2988.5V1422.5H3004.5V1432.5H2770.5V1534.5H3056.5V1432.5H3043.5V1422.5H3056.5V1409.5H3079.5V1576.5H3056.5V1561.5H2770.5V1748H3056.5V1617.5H3079.5V1748H3093V1757H3079.5V1855H3048.5V1831.5H3070.5V1757H2819M873 1619.5V1667.5M923 1619.5V1667.5M971 1619.5V1667.5M1020 1619.5V1667.5M1068 1619.5V1667.5M2819 1757V1807M2868 1757V1807M2917 1757V1807M2966 1757V1807M380.5 1103V1174H390V2044.5H378V2116H390V2187H378V2258.5H390V2297.5V2351.5V2397.5V2451.5V2494.5H378V2565.5H450.5V2555H664V2565.5H735V2555H875V2565.5H945V2555H1089V2565.5H1158.5V2508.5H3034.5V2565.5H3104.5V2555H3252V2565.5H3324V2555H3469.5V2565.5H3540V2555H3680.5V2565.5H3749.5V2494.5H3739V2268.5H3749.5V2205.5H3739V2108H3749.5V2040.5H3680V2049.5H3506.5V1168.5H3680.5V1178.5H3749.5V1109.5H3739V672.5H3749.5V603.5H3681V614H3079.5V603.5H3012V614H2838V603.5H2770.5V614H2741.5V2049.5H1149V1174H1158.5V1103H1088.5V1114H911V1103H836.5V1114H711.5V1103H639V1114H451.5V1103H380.5ZM3317.5 1561H3284.5V1753H3473V1561H3317.5ZM3171.5 1217.5H3179.5V1443.5H3171.5V1217.5ZM2823 1042.5V1052.5H3056.5V1070.5H3079.5V1030H3056.5V1042.5H2988.5V1025.5H2980V1042.5H2823ZM3317.5 643V864.5H3370.5V870.5H3317.5V920.5H3441.5V910.5H3451.5V913H3464V920.5H3705.5V643H3451.5V870.5H3409.5V864.5H3441.5V643H3317.5Z" stroke="black" stroke-width="3"/>
</svg>
