<svg width="4096" height="2897" viewBox="0 0 4096 2897" fill="none" xmlns="http://www.w3.org/2000/svg">
<path d="M1268 1831V1823H1291.5V1831V1841.38C1291.5 1847.67 1290.41 1854.72 1285.07 1858.06C1281.12 1860.53 1277.35 1859.77 1274.25 1857.76C1269.15 1854.45 1268 1847.8 1268 1841.72V1831Z" fill="white"/>
<path d="M1268 1831V1823H1291.5V1831M1268 1831H1291.5M1268 1831V1841.72C1268 1847.8 1269.15 1854.45 1274.25 1857.76C1277.35 1859.77 1281.12 1860.53 1285.07 1858.06C1290.41 1854.72 1291.5 1847.67 1291.5 1841.38V1831M1285.5 1847.75V1847.75C1285.5 1850.37 1283.37 1852.5 1280.75 1852.5H1279.75C1277.13 1852.5 1275 1850.37 1275 1847.75V1847.75C1275 1845.13 1277.13 1843 1279.75 1843H1280.75C1283.37 1843 1285.5 1845.13 1285.5 1847.75Z" stroke="black" stroke-width="3"/>
<path d="M514.5 1850V1865M514.5 1850H467.75M514.5 1850V1804M514.5 1850L529.75 1834.75M514.5 1865V1880M514.5 1865H473.5M421 1865V1850H467.75M421 1865V1880M421 1865H461M514.5 1880H421M514.5 1880V1894M421 1880V1894M514.5 1894H421M514.5 1894V1908M421 1894V1908M514.5 1908H421M514.5 1908V1923M421 1908V1923M514.5 1923H421M514.5 1923V1938M421 1923V1938M514.5 1938H421M514.5 1938V1952.5M421 1938V1952.5M514.5 1952.5V1967H467.75M514.5 1952.5H421M421 1952.5V1967H467.75M467.75 1967V1850M467.75 1850L461 1865M467.75 1850L473.5 1865M461 1865H473.5M589 1758H606.5L589 1775.5M589 1758H574.5M589 1758V1775.5M574.5 1758H560M574.5 1758V1790M560 1758H545M560 1758V1804.5M545 1758H529.75M545 1758V1819.5M529.75 1758H514.5V1804M529.75 1758V1834.75M514.5 1804L560 1804.5M589 1775.5L574.5 1790M574.5 1790L560 1804.5M560 1804.5L545 1819.5M560 1804.5H599.5M545 1819.5L529.75 1834.75M599.5 1804.5L583 1800M599.5 1804.5L583 1809" stroke="black" stroke-width="3"/>
<path d="M3382 1846V1861M3382 1846H3428.75M3382 1846V1800M3382 1846L3366.75 1830.75M3382 1861V1876M3382 1861H3423M3475.5 1861V1846H3428.75M3475.5 1861V1876M3475.5 1861H3435.5M3382 1876H3475.5M3382 1876V1890M3475.5 1876V1890M3382 1890H3475.5M3382 1890V1904M3475.5 1890V1904M3382 1904H3475.5M3382 1904V1919M3475.5 1904V1919M3382 1919H3475.5M3382 1919V1934M3475.5 1919V1934M3382 1934H3475.5M3382 1934V1948.5M3475.5 1934V1948.5M3382 1948.5V1963H3428.75M3382 1948.5H3475.5M3475.5 1948.5V1963H3428.75M3428.75 1963V1846M3428.75 1846L3435.5 1861M3428.75 1846L3423 1861M3435.5 1861H3423M3307.5 1754H3290L3307.5 1771.5M3307.5 1754H3322M3307.5 1754V1771.5M3322 1754H3336.5M3322 1754V1786M3336.5 1754H3351.5M3336.5 1754V1800.5M3351.5 1754H3366.75M3351.5 1754V1815.5M3366.75 1754H3382V1800M3366.75 1754V1830.75M3382 1800L3336.5 1800.5M3307.5 1771.5L3322 1786M3322 1786L3336.5 1800.5M3336.5 1800.5L3351.5 1815.5M3336.5 1800.5H3297M3351.5 1815.5L3366.75 1830.75M3297 1800.5L3313.5 1796M3297 1800.5L3313.5 1805" stroke="black" stroke-width="3"/>
<path d="M2965 642L2950.5 642M2965 642L2965 674.635M2965 642L2979.5 642M2965 707.27L2950.5 707.27M2965 707.27L2965 674.635M2965 707.27L2979.5 707.27M2863 707.27L2848 707.27L2848 674.635M2863 707.27L2878 707.27M2863 707.27L2863 678.649M2863 642L2848 642L2848 674.635M2863 642L2878 642M2863 642L2863 669.923M2878 707.27L2878 642M2878 707.27L2892 707.27M2878 642L2892 642M2892 707.27L2892 642M2892 707.27L2906 707.27M2892 642L2906 642M2906 707.27L2906 642M2906 707.27L2921 707.27M2906 642L2921 642M2921 707.27L2921 642M2921 707.27L2936 707.27M2921 642L2936 642M2936 707.27L2936 642M2936 707.27L2950.5 707.27M2936 642L2950.5 642M2950.5 707.27L2950.5 642M2965 674.635L2848 674.635M2965 674.635L2994 674.635M2848 674.635L2863 669.923M2848 674.635L2863 678.649M2863 669.923L2863 678.649M2979.5 707.27L2994 707.27L2994 674.635M2979.5 707.27L2979.5 642M2979.5 642L2994 642L2994 674.635M2979 780L2994 780L2994 747.365M2979 780L2964 780M2979 780L2979 751.379M2979 714.73L2994 714.73L2994 747.365M2979 714.73L2964 714.73M2979 714.73L2979 742.653M2964 780L2964 714.73M2964 780L2950 780L2950 747.365M2964 714.73L2950 714.73L2950 747.365M2994 747.365L2979 742.653M2994 747.365L2979 751.379M2994 747.365L2950 747.365M2979 742.653L2979 751.379" stroke="black" stroke-width="3"/>
<path d="M3680.5 1168.5V1178.5H3749.5V1109.5H3739V672.5H3749.5V603.5H3681V614H3559V643H3584V790H3538.5V797.5H3584V856H3597.5V643H3713.5V915.5H3597.5V896.5H3584V915.5H3568V955.5H3597.5V973.5H3604.5V955.5H3713.5V1128H3604.5V1012H3597.5V1128H3580V1168.5H3680.5Z" fill="#C4C4C4"/>
<path fill-rule="evenodd" clip-rule="evenodd" d="M380.5 1103V1174H390V2044.5H378V2116H390V2187H378V2258.5H390V2297.5V2351.5V2397.5V2451.5V2494.5H378V2565.5H450.5V2555H664V2565.5H735V2555H875V2565.5H945V2555H1089V2565.5H1158.5V2508.5H3034.5V2565.5H3104.5V2555H3145V2528.5H3079V2425H3113V2414H3079V2404.5H3042V2464.5H2849.5V2282.5H3042V2365H3083V2270.5H2932V2246.5H2922V2270.5H2849.5V2174H2922V2193.5H2932V2174H3042V2231.5H3497V2251H3506.5V2231.5H3714.5V2528.5H3506.5V2297H3497V2307H3370.5V2317.5H3497V2528.5H3215.5V2317.5H3333V2307H3204.5V2396.5H3181.5V2414H3154.5V2425H3204.5V2528.5H3194V2555H3252V2565.5H3324V2555H3469.5V2565.5H3540V2555H3680.5V2565.5H3749.5V2494.5H3739V2268.5H3749.5V2205.5H3739V2108H3749.5V2040.5H3680V2049.5H3506.5V1168.5H3530V1128H3471V1137.5H3477V1438H3204.5V1431H3178.5V1588.5H3204.5V1545H3253V1525.5H3204.5V1447H3477V1525.5H3291.5V1545H3477V1647.5H3401.5V1654.5H3477V1730.5H3288.5V1654.5H3363V1647.5H3204.5V1627.5H3178.5V1663H3080.5V1603H3061V1659.5H3003.5V1669.5H3061V1716H3070.5V1810H2988.5V1837.5H2780V1669.5H2964.5V1659.5H2780V1608.5H2741.5V1614H2721.5V1638.5H2713V1648.5H2741.5V2029H2394.5V1948.5H2402.5V1906H2394.5V1706H2381.5V1906H2373V1948.5H2381.5V2029H2218V1800H2209.5V2029H1803.5V1969H1835V1936.5H1803.5V1648.5H1835V1638.5H2085.5V1648.5H2117.5V1638.5H2209.5V1674.5H2218V1629.5H2117.5V1622.5H2085.5V1629.5H1856V1622.5H1824.5V1331H2240V1310.5H1774.5V1331H1786.5V1354.5H1806.5V1612.5H1786.5V1908.5H1637V1919.5H1786.5V2029H1751V2049H1694.5V2029H1507.5V1919.5H1601.5V1908.5H1494V2029H1379V1985H1361.5V2029H1225.5V2049H1166V2029H1149V1919.5H1361.5V1946H1379V1901.5H1361.5V1908.5H1316V1901.5H1305.5V1908.5H1258V1822H1305.5V1865H1316V1822H1361.5V1860.5H1379V1781H1361.5V1811.5H1202V1827.5H1193V1837H1210V1822H1249V1908.5H1149V1837H1156V1827.5H1149V1701.5H1361.5V1739.5H1379V1658H1361.5V1691.5H1149V1454.5H1257V1445.5H1230.5V1433.5H1219V1445.5H1149V1331H1201.5V1350.5H1219V1395.5H1230.5V1331H1265.5V1310.5H1257V1195.5H1242.5V1310.5H1149V1174H1158.5V1114H1242.5V1150H1257V1103H1158.5H1088.5V1114H911V1103H836.5V1114H711.5V1103H639V1114H451.5V1103H380.5ZM1110.5 1487.5V1140.5H419.5V1487.5H618V1503H419.5V1716.5H692.5V1672H727V2039H736V2069.5H692.5V1756.5H420.5V2217.5H770.5V2258.5H420.5V2508.5H1105V2258.5H995V2217.5H1105V2136H1149V2464H1367V2136H1375V2464H1534.5V2136H1545.5V2464H1771.5V2217.5H1762.5V2175H1771.5V2136H1780V2175H1796V2217.5H1780V2464H1967V2136H1997V2464H2178V2136H2188V2164.5H2285V2174H2212.5V2464H2394V2174H2323.5V2164.5H2503V2174H2423.5V2464H2609.5V2174H2544.5V2164.5H2692.5V2136H2703V2164.5H2731.5V2174H2641.5V2464H2823.5V2174H2769.5V2164.5H3042V2146.5H3070.5V2136H3079V2193.5H3091V2222.5H3174V2193.5H3204.5V2222.5H3269.5V2193.5H3300V2222.5H3373.5V2193.5H3403V2222.5H3469V2193.5H3497V2222.5H3572.5V2193.5H3604V2222.5H3702V2193.5H3714.5V2072.5H3462.5V2046H3477V1752H3207.5V2072.5H3165V2046H3178.5V1835.5H3102.5V1966.5H3091V1835.5H3047V1819H2997.5V2046H3031V2032H3070.5V2046H3091V2012H3102.5V2072.5H3079V2085H3067.5V2072.5H3042V2065H2947V2046H2988.5V1847.5H2780V2046H2907.5V2065H2855V2085H2845.5V2065H2701.5V2085H2692.5V2065H2188V2085H2178V2065H1997V2085H1967V2065H1780V2085H1771.5V2065H1545.5V2085H1534.5V2065H1375V2085H1367V2065H1149V2085H1105V2069.5H799V2039H806V1960.5H822V2029H1110.5V1883.5H865V1893H852.5V1908.5H822V1920.5H806V1855.5H822V1865.5H852.5V1872.5H1110.5V1750.5H852.5V1777H822V1815.5H806V1672H822V1739.5H1110.5V1503H822V1633H806V1503H789V1487.5H1110.5ZM3178.5 1813V1674H3080.5V1813H3178.5ZM3204.5 1730.5V1666.5H3272V1730.5H3204.5Z" fill="#C4C4C4"/>
<path d="M2370 1310.5V1331H2373.5V1364.5H2381.5V1552H2394.5V1372.5H2430V1341H2661.5V1355.5H2697V1331H2741.5V1560H2782.5V1535.5H2964.5V1525.5H2782.5V1179H3061V1417H3082.5V1028H3061V1043.5H3035V1051.5H3061V1168.5H2782.5V1051.5H2996.5V1043.5H2782.5V1004H2741.5V1310.5H2370Z" fill="#C4C4C4"/>
<path d="M1342 1310.5V1331H1361.5V1395.5H1379V1331H1489.5V1354.5H1525.5V1331H1716.5V1310.5H1342Z" fill="#C4C4C4"/>
<path d="M2394.5 1591H2381.5V1608.5H2373V1642.5H2381.5V1665.5H2394.5V1648.5H2405V1642.5H2654.5V1648.5H2673.5V1642.5H2666V1614H2654.5V1622.5H2405V1608.5H2394.5V1591Z" fill="#C4C4C4"/>
<path d="M3079.5 614V603.5H3012V614H2838V603.5H2770.5V614H2741.5V677.5H2782.5V643H3061V677.5H3085.5V643H3311.5V915.5H3279.5V942H3221.5V915.5H3165.5V942H3145V955.5H3178.5V1032.5H3187.5V955.5H3322.5V961.5H3330.5V955.5H3418V1032.5H3424.5V955.5H3530V915.5H3464V896.5H3448V915.5H3327.5V643H3448V856H3464V797.5H3496.5V790H3464V643H3510V614H3079.5Z" fill="#C4C4C4"/>
<path d="M2741.5 878H2782.5V935.5H3061V923.5H3082.5V942H3107V955.5H3082.5V985.5H3061V942H2782.5V955.5H2741.5V878Z" fill="#C4C4C4"/>
<path d="M2782.5 719.5H2741.5V827H2782.5V804H3061V879.5H3085.5V739.5H3061V781H2782.5V719.5Z" fill="#C4C4C4"/>
<path d="M3178.5 1069H3187.5V1128H3322V992H3330.5V1128H3418V1071H3424.5V1128H3431V1137.5H3204.5V1182.5H3178.5V1069Z" fill="#C4C4C4"/>
<path d="M3178.5 1222.5H3204.5V1393H3178.5V1222.5Z" fill="#C4C4C4"/>
<path d="M1379 1618.5H1361.5V1523H1379V1618.5Z" fill="#C4C4C4"/>
<path d="M1379 1484H1361.5V1454.5H1289.5V1445.5H1361.5V1429.5H1379V1484Z" fill="#C4C4C4"/>
<path d="M3003.5 1525.5V1535.5H3061V1560H3080.5V1457.5H3061V1525.5H3003.5Z" fill="#C4C4C4"/>
<path d="M3559 614H3681V603.5H3749.5V672.5H3739V1109.5H3749.5V1178.5H3680.5V1168.5H3580V1128H3597.5V1012H3604.5V1128H3713.5V955.5H3604.5V973.5H3597.5V955.5H3568V915.5H3584V896.5H3597.5V915.5H3713.5V643H3597.5V856H3584V797.5H3538.5V790H3584V643H3559V614ZM3559 614H3510M3510 614H3079.5V603.5H3012V614H2838V603.5H2770.5V614H2741.5V677.5H2782.5V643H3061V677.5H3085.5V643H3311.5V915.5H3279.5V942H3221.5V915.5H3165.5V942H3145V955.5H3178.5V1032.5H3187.5V955.5H3322.5V961.5H3330.5V955.5H3418V1032.5H3424.5V955.5H3530V915.5H3464V896.5H3448V915.5H3327.5V643H3448V856H3464V797.5H3496.5V790H3464V643H3510V614ZM380.5 1103V1174H390V2044.5H378V2116H390V2187H378V2258.5H390V2297.5V2351.5V2397.5V2451.5V2494.5H378V2565.5H450.5V2555H664V2565.5H735V2555H875V2565.5H945V2555H1089V2565.5H1158.5V2508.5H3034.5V2565.5H3104.5V2555H3145V2528.5H3079V2425H3113V2414H3079V2404.5H3042V2464.5H2849.5V2282.5H3042V2365H3083V2270.5H2932V2246.5H2922V2270.5H2849.5V2174H2922V2193.5H2932V2174H3042V2231.5H3497V2251H3506.5V2231.5H3714.5V2528.5H3506.5V2297H3497V2307H3370.5V2317.5H3497V2528.5H3215.5V2317.5H3333V2307H3204.5V2396.5H3181.5V2414H3154.5V2425H3204.5V2528.5H3194V2555H3252V2565.5H3324V2555H3469.5V2565.5H3540V2555H3680.5V2565.5H3749.5V2494.5H3739V2268.5H3749.5V2205.5H3739V2108H3749.5V2040.5H3680V2049.5H3506.5V1168.5H3530V1128H3471V1137.5H3477V1438H3204.5V1431H3178.5V1588.5H3204.5V1545H3253V1525.5H3204.5V1447H3477V1525.5H3291.5V1545H3477V1647.5H3401.5V1654.5H3477V1730.5H3288.5V1654.5H3363V1647.5H3204.5V1627.5H3178.5V1663H3080.5V1603H3061V1659.5H3003.5V1669.5H3061V1716H3070.5V1810H2988.5V1837.5H2780V1669.5H2964.5V1659.5H2780V1608.5H2741.5V1614H2721.5V1638.5H2713V1648.5H2741.5V2029H2394.5V1948.5H2402.5V1906H2394.5V1706H2381.5V1906H2373V1948.5H2381.5V2029H2218V1800H2209.5V2029H1803.5V1969H1835V1936.5H1803.5V1648.5H1835V1638.5H2085.5V1648.5H2117.5V1638.5H2209.5V1674.5H2218V1629.5H2117.5V1622.5H2085.5V1629.5H1856V1622.5H1824.5V1331H2240V1310.5H1774.5V1331H1786.5V1354.5H1806.5V1612.5H1786.5V1908.5H1637V1919.5H1786.5V2029H1751V2049H1694.5V2029H1507.5V1919.5H1601.5V1908.5H1494V2029H1379V1985H1361.5V2029H1225.5V2049H1166V2029H1149V1919.5H1361.5V1946H1379V1901.5H1361.5V1908.5H1316V1901.5H1305.5V1908.5H1258V1822H1305.5V1865H1316V1822H1361.5V1860.5H1379V1781H1361.5V1811.5H1202V1827.5H1193V1837H1210V1822H1249V1908.5H1149V1837H1156V1827.5H1149V1701.5H1361.5V1739.5H1379V1658H1361.5V1691.5H1149V1454.5H1257V1445.5H1230.5V1433.5H1219V1445.5H1149V1331H1201.5V1350.5H1219V1395.5H1230.5V1331H1265.5V1310.5H1257V1195.5H1242.5V1310.5H1149V1174H1158.5V1114H1242.5V1150H1257V1103H1158.5H1088.5V1114H911V1103H836.5V1114H711.5V1103H639V1114H451.5V1103H380.5ZM419.5 1140.5H1110.5V1487.5H789V1503H806V1633H822V1503H1110.5V1739.5H822V1672H806V1815.5H822V1777H852.5V1750.5H1110.5V1872.5H852.5V1865.5H822V1855.5H806V1920.5H822V1908.5H852.5V1893H865V1883.5H1110.5V2029H822V1960.5H806V2039H799V2069.5H1105V2085H1149V2065H1367V2085H1375V2065H1534.5V2085H1545.5V2065H1771.5V2085H1780V2065H1967V2085H1997V2065H2178V2085H2188V2065H2692.5V2085H2701.5V2065H2845.5V2085H2855V2065H2907.5V2046H2780V1847.5H2988.5V2046H2947V2065H3042V2072.5H3067.5V2085H3079V2072.5H3102.5V2012H3091V2046H3070.5V2032H3031V2046H2997.5V1819H3047V1835.5H3091V1966.5H3102.5V1835.5H3178.5V2046H3165V2072.5H3207.5V1752H3477V2046H3462.5V2072.5H3714.5V2193.5H3702V2222.5H3604V2193.5H3572.5V2222.5H3497V2193.5H3469V2222.5H3403V2193.5H3373.5V2222.5H3300V2193.5H3269.5V2222.5H3204.5V2193.5H3174V2222.5H3091V2193.5H3079V2136H3070.5V2146.5H3042V2164.5H2769.5V2174H2823.5V2464H2641.5V2174H2731.5V2164.5H2703V2136H2692.5V2164.5H2544.5V2174H2609.5V2464H2423.5V2174H2503V2164.5H2323.5V2174H2394V2464H2212.5V2174H2285V2164.5H2188V2136H2178V2464H1997V2136H1967V2464H1780V2217.5H1796V2175H1780V2136H1771.5V2175H1762.5V2217.5H1771.5V2464H1545.5V2136H1534.5V2464H1375V2136H1367V2464H1149V2136H1105V2217.5H995V2258.5H1105V2508.5H420.5V2258.5H770.5V2217.5H420.5V1756.5H692.5V2069.5H736V2039H727V1672H692.5V1716.5H419.5V1503H618V1487.5H419.5V1140.5ZM1342 1310.5V1331H1361.5V1395.5H1379V1331H1489.5V1354.5H1525.5V1331H1716.5V1310.5H1342ZM1379 1618.5H1361.5V1523H1379V1618.5ZM1379 1484H1361.5V1454.5H1289.5V1445.5H1361.5V1429.5H1379V1484ZM2370 1310.5V1331H2373.5V1364.5H2381.5V1552H2394.5V1372.5H2430V1341H2661.5V1355.5H2697V1331H2741.5V1560H2782.5V1535.5H2964.5V1525.5H2782.5V1179H3061V1417H3082.5V1028H3061V1043.5H3035V1051.5H3061V1168.5H2782.5V1051.5H2996.5V1043.5H2782.5V1004H2741.5V1310.5H2370ZM2394.5 1591H2381.5V1608.5H2373V1642.5H2381.5V1665.5H2394.5V1648.5H2405V1642.5H2654.5V1648.5H2673.5V1642.5H2666V1614H2654.5V1622.5H2405V1608.5H2394.5V1591ZM2782.5 719.5H2741.5V827H2782.5V804H3061V879.5H3085.5V739.5H3061V781H2782.5V719.5ZM2741.5 878H2782.5V935.5H3061V923.5H3082.5V942H3107V955.5H3082.5V985.5H3061V942H2782.5V955.5H2741.5V878ZM3003.5 1525.5V1535.5H3061V1560H3080.5V1457.5H3061V1525.5H3003.5ZM3178.5 1674V1813H3080.5V1674H3178.5ZM3178.5 1069H3187.5V1128H3322V992H3330.5V1128H3418V1071H3424.5V1128H3431V1137.5H3204.5V1182.5H3178.5V1069ZM3178.5 1222.5H3204.5V1393H3178.5V1222.5ZM3204.5 1666.5V1730.5H3272V1666.5H3204.5Z" stroke="black" stroke-width="3"/>
</svg>
