<svg width="4096" height="2897" viewBox="0 0 4096 2897" fill="none" xmlns="http://www.w3.org/2000/svg">
<path d="M513.5 1868.5V1883.5M513.5 1868.5H466.75M513.5 1868.5H528.75M513.5 1868.5V1822.5M605.5 1868.5V1883.5M605.5 1868.5H651.75M605.5 1868.5H588M605.5 1868.5V1822.5M605.5 1883.5V1985.5H651.75M605.5 1883.5H698M698 1883.5V1868.5H651.75M698 1883.5V1985.5H651.75M605.5 1898.5H698M605.5 1912.5H698M605.5 1926.5H698M605.5 1941.5H698M605.5 1956.5H698M605.5 1971.5H645.5M698 1971.5H658M513.5 1883.5V1898.5M513.5 1883.5H472.5M420 1883.5V1868.5H466.75M420 1883.5V1898.5M420 1883.5H460M513.5 1898.5H420M513.5 1898.5V1912.5M420 1898.5V1912.5M513.5 1912.5H420M513.5 1912.5V1926.5M420 1912.5V1926.5M513.5 1926.5H420M513.5 1926.5V1941.5M420 1926.5V1941.5M513.5 1941.5H420M513.5 1941.5V1956.5M420 1941.5V1956.5M513.5 1956.5H420M513.5 1956.5V1971M420 1956.5V1971M513.5 1971V1985.5H466.75M513.5 1971H420M420 1971V1985.5H466.75M466.75 1985.5V1868.5M466.75 1868.5L460 1883.5M466.75 1868.5L472.5 1883.5M460 1883.5H472.5M651.75 1868.5V1985.5M651.75 1985.5L645.5 1971.5M651.75 1985.5L658 1971.5M645.5 1971.5H658M588 1776.5H605.5V1822.5M588 1776.5H573.5M588 1776.5V1816M588 1868.5H573.5M588 1868.5V1828.5M573.5 1776.5V1868.5M573.5 1776.5H559M573.5 1868.5H559M559 1776.5V1868.5M559 1776.5H544M559 1868.5H544M544 1776.5V1868.5M544 1776.5H528.75M544 1868.5H528.75M528.75 1776.5H513.5V1822.5M528.75 1776.5V1868.5M513.5 1822.5H605.5M605.5 1822.5L588 1816M605.5 1822.5L588 1828.5M588 1816V1828.5" stroke="black" stroke-width="3"/>
<path d="M842 1644V1636H865.5V1644V1654.38C865.5 1660.67 864.407 1667.72 859.073 1671.06C855.125 1673.53 851.355 1672.77 848.249 1670.76C843.153 1667.45 842 1660.8 842 1654.72V1644Z" fill="white"/>
<path d="M842 1644V1636H865.5V1644M842 1644H865.5M842 1644V1654.72C842 1660.8 843.153 1667.45 848.249 1670.76C851.355 1672.77 855.125 1673.53 859.073 1671.06C864.407 1667.72 865.5 1660.67 865.5 1654.38V1644M859.5 1660.75V1660.75C859.5 1663.37 857.373 1665.5 854.75 1665.5H853.75C851.127 1665.5 849 1663.37 849 1660.75V1660.75C849 1658.13 851.127 1656 853.75 1656H854.75C857.373 1656 859.5 1658.13 859.5 1660.75Z" stroke="#302E39" stroke-width="3"/>
<path d="M892 1644V1636H915.5V1644V1654.38C915.5 1660.67 914.407 1667.72 909.073 1671.06C905.125 1673.53 901.355 1672.77 898.249 1670.76C893.153 1667.45 892 1660.8 892 1654.72V1644Z" fill="white"/>
<path d="M892 1644V1636H915.5V1644M892 1644H915.5M892 1644V1654.72C892 1660.8 893.153 1667.45 898.249 1670.76C901.355 1672.77 905.125 1673.53 909.073 1671.06C914.407 1667.72 915.5 1660.67 915.5 1654.38V1644M909.5 1660.75V1660.75C909.5 1663.37 907.373 1665.5 904.75 1665.5H903.75C901.127 1665.5 899 1663.37 899 1660.75V1660.75C899 1658.13 901.127 1656 903.75 1656H904.75C907.373 1656 909.5 1658.13 909.5 1660.75Z" stroke="#302E39" stroke-width="3"/>
<path d="M940 1644V1636H963.5V1644V1654.38C963.5 1660.67 962.407 1667.72 957.073 1671.06C953.125 1673.53 949.355 1672.77 946.249 1670.76C941.153 1667.45 940 1660.8 940 1654.72V1644Z" fill="white"/>
<path d="M940 1644V1636H963.5V1644M940 1644H963.5M940 1644V1654.72C940 1660.8 941.153 1667.45 946.249 1670.76C949.355 1672.77 953.125 1673.53 957.073 1671.06C962.407 1667.72 963.5 1660.67 963.5 1654.38V1644M957.5 1660.75V1660.75C957.5 1663.37 955.373 1665.5 952.75 1665.5H951.75C949.127 1665.5 947 1663.37 947 1660.75V1660.75C947 1658.13 949.127 1656 951.75 1656H952.75C955.373 1656 957.5 1658.13 957.5 1660.75Z" stroke="#302E39" stroke-width="3"/>
<path d="M990 1644V1636H1013.5V1644V1654.38C1013.5 1660.67 1012.41 1667.72 1007.07 1671.06C1003.12 1673.53 999.355 1672.77 996.249 1670.76C991.153 1667.45 990 1660.8 990 1654.72V1644Z" fill="white"/>
<path d="M990 1644V1636H1013.5V1644M990 1644H1013.5M990 1644V1654.72C990 1660.8 991.153 1667.45 996.249 1670.76C999.355 1672.77 1003.12 1673.53 1007.07 1671.06C1012.41 1667.72 1013.5 1660.67 1013.5 1654.38V1644M1007.5 1660.75V1660.75C1007.5 1663.37 1005.37 1665.5 1002.75 1665.5H1001.75C999.127 1665.5 997 1663.37 997 1660.75V1660.75C997 1658.13 999.127 1656 1001.75 1656H1002.75C1005.37 1656 1007.5 1658.13 1007.5 1660.75Z" stroke="#302E39" stroke-width="3"/>
<path d="M2904 1763V1755H2927.5V1763V1773.38C2927.5 1779.67 2926.41 1786.72 2921.07 1790.06C2917.12 1792.53 2913.35 1791.77 2910.25 1789.76C2905.15 1786.45 2904 1779.8 2904 1773.72V1763Z" fill="white"/>
<path d="M2904 1763V1755H2927.5V1763M2904 1763H2927.5M2904 1763V1773.72C2904 1779.8 2905.15 1786.45 2910.25 1789.76C2913.35 1791.77 2917.12 1792.53 2921.07 1790.06C2926.41 1786.72 2927.5 1779.67 2927.5 1773.38V1763M2921.5 1779.75V1779.75C2921.5 1782.37 2919.37 1784.5 2916.75 1784.5H2915.75C2913.13 1784.5 2911 1782.37 2911 1779.75V1779.75C2911 1777.13 2913.13 1775 2915.75 1775H2916.75C2919.37 1775 2921.5 1777.13 2921.5 1779.75Z" stroke="#302E39" stroke-width="3"/>
<path d="M2950 1763V1755H2973.5V1763V1773.38C2973.5 1779.67 2972.41 1786.72 2967.07 1790.06C2963.12 1792.53 2959.35 1791.77 2956.25 1789.76C2951.15 1786.45 2950 1779.8 2950 1773.72V1763Z" fill="white"/>
<path d="M2950 1763V1755H2973.5V1763M2950 1763H2973.5M2950 1763V1773.72C2950 1779.8 2951.15 1786.45 2956.25 1789.76C2959.35 1791.77 2963.12 1792.53 2967.07 1790.06C2972.41 1786.72 2973.5 1779.67 2973.5 1773.38V1763M2967.5 1779.75V1779.75C2967.5 1782.37 2965.37 1784.5 2962.75 1784.5H2961.75C2959.13 1784.5 2957 1782.37 2957 1779.75V1779.75C2957 1777.13 2959.13 1775 2961.75 1775H2962.75C2965.37 1775 2967.5 1777.13 2967.5 1779.75Z" stroke="#302E39" stroke-width="3"/>
<path d="M2998 1763V1755H3021.5V1763V1773.38C3021.5 1779.67 3020.41 1786.72 3015.07 1790.06C3011.12 1792.53 3007.35 1791.77 3004.25 1789.76C2999.15 1786.45 2998 1779.8 2998 1773.72V1763Z" fill="white"/>
<path d="M2998 1763V1755H3021.5V1763M2998 1763H3021.5M2998 1763V1773.72C2998 1779.8 2999.15 1786.45 3004.25 1789.76C3007.35 1791.77 3011.12 1792.53 3015.07 1790.06C3020.41 1786.72 3021.5 1779.67 3021.5 1773.38V1763M3015.5 1779.75V1779.75C3015.5 1782.37 3013.37 1784.5 3010.75 1784.5H3009.75C3007.13 1784.5 3005 1782.37 3005 1779.75V1779.75C3005 1777.13 3007.13 1775 3009.75 1775H3010.75C3013.37 1775 3015.5 1777.13 3015.5 1779.75Z" stroke="#302E39" stroke-width="3"/>
<path d="M3040 1763V1755H3063.5V1763V1773.38C3063.5 1779.67 3062.41 1786.72 3057.07 1790.06C3053.12 1792.53 3049.35 1791.77 3046.25 1789.76C3041.15 1786.45 3040 1779.8 3040 1773.72V1763Z" fill="white"/>
<path d="M3040 1763V1755H3063.5V1763M3040 1763H3063.5M3040 1763V1773.72C3040 1779.8 3041.15 1786.45 3046.25 1789.76C3049.35 1791.77 3053.12 1792.53 3057.07 1790.06C3062.41 1786.72 3063.5 1779.67 3063.5 1773.38V1763M3057.5 1779.75V1779.75C3057.5 1782.37 3055.37 1784.5 3052.75 1784.5H3051.75C3049.13 1784.5 3047 1782.37 3047 1779.75V1779.75C3047 1777.13 3049.13 1775 3051.75 1775H3052.75C3055.37 1775 3057.5 1777.13 3057.5 1779.75Z" stroke="#302E39" stroke-width="3"/>
<path d="M1038 1644V1636H1061.5V1644V1654.38C1061.5 1660.67 1060.41 1667.72 1055.07 1671.06C1051.12 1673.53 1047.35 1672.77 1044.25 1670.76C1039.15 1667.45 1038 1660.8 1038 1654.72V1644Z" fill="white"/>
<path d="M1038 1644V1636H1061.5V1644M1038 1644H1061.5M1038 1644V1654.72C1038 1660.8 1039.15 1667.45 1044.25 1670.76C1047.35 1672.77 1051.12 1673.53 1055.07 1671.06C1060.41 1667.72 1061.5 1660.67 1061.5 1654.38V1644M1055.5 1660.75V1660.75C1055.5 1663.37 1053.37 1665.5 1050.75 1665.5H1049.75C1047.13 1665.5 1045 1663.37 1045 1660.75V1660.75C1045 1658.13 1047.13 1656 1049.75 1656H1050.75C1053.37 1656 1055.5 1658.13 1055.5 1660.75Z" stroke="#302E39" stroke-width="3"/>
<path d="M1088 1644V1636H1111.5V1644V1654.38C1111.5 1660.67 1110.41 1667.72 1105.07 1671.06C1101.12 1673.53 1097.35 1672.77 1094.25 1670.76C1089.15 1667.45 1088 1660.8 1088 1654.72V1644Z" fill="white"/>
<path d="M1088 1644V1636H1111.5V1644M1088 1644H1111.5M1088 1644V1654.72C1088 1660.8 1089.15 1667.45 1094.25 1670.76C1097.35 1672.77 1101.12 1673.53 1105.07 1671.06C1110.41 1667.72 1111.5 1660.67 1111.5 1654.38V1644M1105.5 1660.75V1660.75C1105.5 1663.37 1103.37 1665.5 1100.75 1665.5H1099.75C1097.13 1665.5 1095 1663.37 1095 1660.75V1660.75C1095 1658.13 1097.13 1656 1099.75 1656H1100.75C1103.37 1656 1105.5 1658.13 1105.5 1660.75Z" stroke="#302E39" stroke-width="3"/>
<path d="M3377.5 1865V1880M3377.5 1865H3424.25M3377.5 1865H3362.25M3377.5 1865V1819M3285.5 1865V1880M3285.5 1865H3239.25M3285.5 1865H3303M3285.5 1865V1819M3285.5 1880V1982H3239.25M3285.5 1880H3193M3193 1880V1865H3239.25M3193 1880V1982H3239.25M3285.5 1895H3193M3285.5 1909H3193M3285.5 1923H3193M3285.5 1938H3193M3285.5 1953H3193M3285.5 1968H3245.5M3193 1968H3233M3377.5 1880V1895M3377.5 1880H3418.5M3471 1880V1865H3424.25M3471 1880V1895M3471 1880H3431M3377.5 1895H3471M3377.5 1895V1909M3471 1895V1909M3377.5 1909H3471M3377.5 1909V1923M3471 1909V1923M3377.5 1923H3471M3377.5 1923V1938M3471 1923V1938M3377.5 1938H3471M3377.5 1938V1953M3471 1938V1953M3377.5 1953H3471M3377.5 1953V1967.5M3471 1953V1967.5M3377.5 1967.5V1982H3424.25M3377.5 1967.5H3471M3471 1967.5V1982H3424.25M3424.25 1982V1865M3424.25 1865L3431 1880M3424.25 1865L3418.5 1880M3431 1880H3418.5M3239.25 1865V1982M3239.25 1982L3245.5 1968M3239.25 1982L3233 1968M3245.5 1968H3233M3303 1773H3285.5V1819M3303 1773H3317.5M3303 1773V1812.5M3303 1865H3317.5M3303 1865V1825M3317.5 1773V1865M3317.5 1773H3332M3317.5 1865H3332M3332 1773V1865M3332 1773H3347M3332 1865H3347M3347 1773V1865M3347 1773H3362.25M3347 1865H3362.25M3362.25 1773H3377.5V1819M3362.25 1773V1865M3377.5 1819H3285.5M3285.5 1819L3303 1812.5M3285.5 1819L3303 1825M3303 1812.5V1825" stroke="black" stroke-width="3"/>
<path d="M2957 641L2942.5 641M2957 641L2957 676M2957 641L2971.5 641M2957 711L2942.5 711M2957 711L2957 676M2957 711L2971.5 711M2855 711L2840 711L2840 676M2855 711L2870 711M2855 711L2855 680.305M2855 641L2840 641L2840 676M2855 641L2870 641M2855 641L2855 670.947M2870 711L2870 641M2870 711L2884 711M2870 641L2884 641M2884 711L2884 641M2884 711L2898 711M2884 641L2898 641M2898 711L2898 641M2898 711L2913 711M2898 641L2913 641M2913 711L2913 641M2913 711L2928 711M2913 641L2928 641M2928 711L2928 641M2928 711L2942.5 711M2928 641L2942.5 641M2942.5 711L2942.5 641M2957 676L2840 676M2957 676L2986 676M2840 676L2855 670.947M2840 676L2855 680.305M2855 670.947L2855 680.305M2971.5 711L2986 711L2986 676M2971.5 711L2971.5 641M2971.5 641L2986 641L2986 676M2869 719L2883.5 719M2869 719L2869 754M2869 719L2854.5 719M2869 789L2883.5 789M2869 789L2869 754M2869 789L2854.5 789M2971 789L2986 789L2986 754M2971 789L2956 789M2971 789L2971 758.305M2971 719L2986 719L2986 754M2971 719L2956 719M2971 719L2971 748.947M2956 789L2956 719M2956 789L2942 789M2956 719L2942 719M2942 789L2942 719M2942 789L2928 789M2942 719L2928 719M2928 789L2928 719M2928 789L2913 789M2928 719L2913 719M2913 789L2913 719M2913 789L2898 789M2913 719L2898 719M2898 789L2898 719M2898 789L2883.5 789M2898 719L2883.5 719M2883.5 789L2883.5 719M2869 754L2986 754M2869 754L2840 754M2986 754L2971 748.947M2986 754L2971 758.305M2971 748.947L2971 758.305M2854.5 789L2840 789L2840 754M2854.5 789L2854.5 719M2854.5 719L2840 719L2840 754" stroke="black" stroke-width="3"/>
<path d="M665 2205V2226.5H668V2257H727V2226.5H1008.5V2205H665Z" fill="#C4C4C4"/>
<path fill-rule="evenodd" clip-rule="evenodd" d="M380.5 1103V1174H390V2044.5H378V2116H390V2187H378V2258.5H390V2297.5V2351.5V2397.5V2451.5V2494.5H378V2565.5H450.5V2555H664V2565.5H735V2555H875V2565.5H945V2555H1089V2565.5H1158.5V2508.5H3034.5V2565.5H3104.5V2555H3252V2565.5H3324V2555H3469.5V2565.5H3540V2555H3680.5V2565.5H3749.5V2494.5H3739V2268.5H3749.5V2205.5H3739V2108H3749.5V2040.5H3680V2049.5H3506.5V1168.5H3680.5V1178.5H3749.5V1109.5H3739V672.5H3749.5V603.5H3681V614H3079.5V603.5H3012V614H2838V603.5H2770.5V614H2741.5V2049.5H1149V1174H1158.5V1103H1088.5V1114H911V1103H836.5V1114H711.5V1103H639V1114H451.5V1103H380.5ZM419.5 1338V1140.5H706V1209H715V1140.5H822.5V1269H832.5V1140.5H997V1329H832.5V1306H822.5V1310H813V1351.5H788V1361.5H813V1370H822.5V1425H832.5V1403H849V1351.5H1048.5V1345H1008V1140.5H1120.5V1345H1087.5V1351.5H1120.5V1548.5H1106.5V1556.5H1120.5V1624.5H943V1613H937V1624.5H828V1556.5H937V1574.5H943V1556.5H1068V1548.5H832.5V1463.5H822.5V1548.5H817.5V1907H846V1898.5H863V1905H871.5V1898.5H1120.5V2046.5H875.5V2019H869V2037H842V2046.5H828.5V1955.5H869V1980H875.5V1950.5H871.5V1947H863V1950.5H828.5V1947H817.5V2046.5H806.5V2069.5H1125V2086.5H1149V2074H1971.5V2084.5H2000V2074H2960V2059.5H2770.5V1914H2808V1901H2770.5V1752.5H2895.5H2939.5H2983.5H3027H3070.5V1833H3039.5V1857.5H3070.5V1901H2846.5V1914H3070.5V2049.5H3037V2059.5H2999V2074H3044V2087.5H3070.5V2074H3099.5V2059.5H3079.5V1864.5H3095.5V1822.5H3079.5V1600H3056.5V1704H3071.5V1740H2770.5V1557.5H3056.5V1562H3079.5V1364H3056.5V1424H3044V1434H3056.5V1531.5H2770.5V1434H3005.5V1424H2998V1362H2982.5V1424H2770.5V1306.5H2982.5V1324H2998V1306.5H3056.5V1324H3079.5V1172H3088.5V1138.5H3079.5V954H3108.5V938.5H3079.5V906.5H3056.5V1170.5H2943.5V1185.5H3056.5V1296.5H2770.5V1185.5H2904V1170.5H2770.5V821H3056.5V867.5H3079.5V745.5H3056.5V788.5H2770.5V640H3056.5V681.5H3079.5V640H3302V836.5H3317V640H3569V767.5H3584V640H3705.5V889H3701V893.5H3705.5V937.5H3673V893.5H3678V889H3662.5V893.5H3668V937.5H3665.5V953H3705.5V1132H3472V1151.5H3268.5V1077.5H3256.5V1138.5H3157V1172H3165.5V1176H3186V1161.5H3234.5V1176H3240.5V1161.5H3472V1339.5H3186V1251.5H3240.5V1214.5H3234.5V1246H3186V1214.5H3165.5V1447H3186V1348H3472V1531.5H3186V1485H3165.5V1614.5H3186V1557.5H3472V1750.5H3283V1658H3186V1653.5H3165.5V1750.5H3154.5V1772.5H3165.5V2059.5H3162V2074H3193V1772.5H3472V2049.5H3465V2160H3478.5V2081.5H3707V2215.5H3610.5V2228.5H3707V2518H3502V2228.5H3571V2215.5H3478.5V2199H3465V2215.5H3405V2228.5H3489.5V2518H3285V2228.5H3365V2215.5H3193V2228.5H3273V2518H3070.5V2228.5H3154V2215.5H3070.5V2161H3044V2168H2968.5V2180H3044V2473H2847.5V2180H2929.5V2168H2754V2180H2826.5V2272.5H2754V2280H2826.5V2473H2629.5V2280H2714V2272.5H2629.5V2180H2714V2168H2539V2180H2609V2473H2417.5V2180H2500.5V2168H2328.5V2180H2396.5V2473H2208V2180H2289V2168H2116.5V2180H2187.5V2473H2000V2180H2078.5V2168H2000V2156H1971.5V2168H1915V2180H1948V2212H1971.5V2473H1786.5V2205H1801.5V2180H1876.5V2168H1480.5V2180H1514V2205H1620V2180H1758.5V2205H1772V2473H1362V2205H1379V2180H1441.5V2168H1149V2160H1125V2205H1047.5V2226.5H1120V2519.5H419.5V2226.5H625.5V2205H622V2116H614.5V2205H419.5V2058.5H499V2073H523.5V2058.5H614.5V2083H622V2070H625.5V2046.5H419.5V1774H698V2046.5H689V2070H742.5V2046.5H731.5V1691H717V1751H419.5V1624.5H686.5V1629.5H717V1652H731.5V1540H715V1467.5H705V1517.5H674.5V1525H705V1540H686.5V1616H419.5V1525H635V1517.5H419.5V1345H679V1398.5H705V1428.5H715V1361.5H749.5V1351.5H715V1248.5H706V1310.5H701V1338H419.5ZM3264.5 1678H3186V1750.5H3264.5V1678ZM1120.5 1634H877.5H828V1831H889V1820H906V1826.5H895.5V1838.5H828V1880.5H846V1891H1120.5V1826.5H945.5V1820H1120.5V1634ZM1334.5 2205H1347.5V2473H1149V2205H1185V2180H1334.5V2205Z" fill="#C4C4C4"/>
<path d="M3147.5 938.5H3177V899.5H3302V876.5H3317V913.5H3569V806.5H3584V889H3590.5V894H3584V937.5H3617.5V894H3613.5V889H3625V893.5H3622.5V937.5H3626.5V953H3268.5V1038.5H3256.5V968H3169.5V953H3147.5V938.5Z" fill="#C4C4C4"/>
<path d="M877.5 1634H828V1831H889V1820H906V1826.5H895.5V1838.5H828V1880.5H846V1891H1120.5V1826.5H945.5V1820H1120.5V1634H877.5ZM877.5 1634V1690.5M927.5 1634V1690.5M976.5 1634V1690.5M1026.5 1634V1690.5M1075.5 1634V1690.5M2895.5 1752.5H2770.5V1901H2808V1914H2770.5V2059.5H2960V2074H2000V2084.5H1971.5V2074H1149V2086.5H1125V2069.5H806.5V2046.5H817.5V1947H828.5V1950.5H863V1947H871.5V1950.5H875.5V1980H869V1955.5H828.5V2046.5H842V2037H869V2019H875.5V2046.5H1120.5V1898.5H871.5V1905H863V1898.5H846V1907H817.5V1548.5H822.5V1463.5H832.5V1548.5H1068V1556.5H943V1574.5H937V1556.5H828V1624.5H937V1613H943V1624.5H1120.5V1556.5H1106.5V1548.5H1120.5V1351.5H1087.5V1345H1120.5V1140.5H1008V1345H1048.5V1351.5H849V1403H832.5V1425H822.5V1370H813V1361.5H788V1351.5H813V1310H822.5V1306H832.5V1329H997V1140.5H832.5V1269H822.5V1140.5H715V1209H706V1140.5H419.5V1338H701V1310.5H706V1248.5H715V1351.5H749.5V1361.5H715V1428.5H705V1398.5H679V1345H419.5V1517.5H635V1525H419.5V1616H686.5V1540H705V1525H674.5V1517.5H705V1467.5H715V1540H731.5V1652H717V1629.5H686.5V1624.5H419.5V1751H717V1691H731.5V2046.5H742.5V2070H689V2046.5H698V1774H419.5V2046.5H625.5V2070H622V2083H614.5V2058.5H523.5V2073H499V2058.5H419.5V2205H614.5V2116H622V2205H625.5V2226.5H419.5V2519.5H1120V2226.5H1047.5V2205H1125V2160H1149V2168H1441.5V2180H1379V2205H1362V2473H1772V2205H1758.5V2180H1620V2205H1514V2180H1480.5V2168H1876.5V2180H1801.5V2205H1786.5V2473H1971.5V2212H1948V2180H1915V2168H1971.5V2156H2000V2168H2078.5V2180H2000V2473H2187.5V2180H2116.5V2168H2289V2180H2208V2473H2396.5V2180H2328.5V2168H2500.5V2180H2417.5V2473H2609V2180H2539V2168H2714V2180H2629.5V2272.5H2714V2280H2629.5V2473H2826.5V2280H2754V2272.5H2826.5V2180H2754V2168H2929.5V2180H2847.5V2473H3044V2180H2968.5V2168H3044V2161H3070.5V2215.5H3154V2228.5H3070.5V2518H3273V2228.5H3193V2215.5H3365V2228.5H3285V2518H3489.5V2228.5H3405V2215.5H3465V2199H3478.5V2215.5H3571V2228.5H3502V2518H3707V2228.5H3610.5V2215.5H3707V2081.5H3478.5V2160H3465V2049.5H3472V1772.5H3193V2074H3162V2059.5H3165.5V1772.5H3154.5V1750.5H3165.5V1653.5H3186V1658H3283V1750.5H3472V1557.5H3186V1614.5H3165.5V1485H3186V1531.5H3472V1348H3186V1447H3165.5V1214.5H3186V1246H3234.5V1214.5H3240.5V1251.5H3186V1339.5H3472V1161.5H3240.5V1176H3234.5V1161.5H3186V1176H3165.5V1172H3157V1138.5H3256.5V1077.5H3268.5V1151.5H3472V1132H3705.5V953H3665.5V937.5H3668V893.5H3662.5V889H3678V893.5H3673V937.5H3705.5V893.5H3701V889H3705.5V640H3584V767.5H3569V640H3317V836.5H3302V640H3079.5V681.5H3056.5V640H2770.5V788.5H3056.5V745.5H3079.5V867.5H3056.5V821H2770.5V1170.5H2904V1185.5H2770.5V1296.5H3056.5V1185.5H2943.5V1170.5H3056.5V906.5H3079.5V938.5H3108.5V954H3079.5V1138.5H3088.5V1172H3079.5V1324H3056.5V1306.5H2998V1324H2982.5V1306.5H2770.5V1424H2982.5V1362H2998V1424H3005.5V1434H2770.5V1531.5H3056.5V1434H3044V1424H3056.5V1364H3079.5V1562H3056.5V1557.5H2770.5V1740H3071.5V1704H3056.5V1600H3079.5V1822.5H3095.5V1864.5H3079.5V2059.5H3099.5V2074H3070.5V2087.5H3044V2074H2999V2059.5H3037V2049.5H3070.5V1914H2846.5V1901H3070.5V1857.5H3039.5V1833H3070.5V1752.5H3027M2895.5 1752.5V1800.5M2895.5 1752.5H2939.5M2939.5 1752.5V1800.5M2939.5 1752.5H2983.5M2983.5 1752.5V1800.5M2983.5 1752.5H3027M3027 1752.5V1800.5M380.5 1103V1174H390V2044.5H378V2116H390V2187H378V2258.5H390V2297.5V2351.5V2397.5V2451.5V2494.5H378V2565.5H450.5V2555H664V2565.5H735V2555H875V2565.5H945V2555H1089V2565.5H1158.5V2508.5H3034.5V2565.5H3104.5V2555H3252V2565.5H3324V2555H3469.5V2565.5H3540V2555H3680.5V2565.5H3749.5V2494.5H3739V2268.5H3749.5V2205.5H3739V2108H3749.5V2040.5H3680V2049.5H3506.5V1168.5H3680.5V1178.5H3749.5V1109.5H3739V672.5H3749.5V603.5H3681V614H3079.5V603.5H3012V614H2838V603.5H2770.5V614H2741.5V2049.5H1149V1174H1158.5V1103H1088.5V1114H911V1103H836.5V1114H711.5V1103H639V1114H451.5V1103H380.5ZM3186 1678H3264.5V1750.5H3186V1678ZM665 2205V2226.5H668V2257H727V2226.5H1008.5V2205H665ZM3147.5 938.5H3177V899.5H3302V876.5H3317V913.5H3569V806.5H3584V889H3590.5V894H3584V937.5H3617.5V894H3613.5V889H3625V893.5H3622.5V937.5H3626.5V953H3268.5V1038.5H3256.5V968H3169.5V953H3147.5V938.5ZM1347.5 2205H1334.5V2180H1185V2205H1149V2473H1347.5V2205Z" stroke="black" stroke-width="3"/>
</svg>
